<?xml version="1.0" encoding="UTF-8" standalone="no"?>
<svg
   xmlns:dc="http://purl.org/dc/elements/1.1/"
   xmlns:cc="http://creativecommons.org/ns#"
   xmlns:rdf="http://www.w3.org/1999/02/22-rdf-syntax-ns#"
   xmlns:svg="http://www.w3.org/2000/svg"
   xmlns="http://www.w3.org/2000/svg"
   xmlns:xlink="http://www.w3.org/1999/xlink"
   xmlns:sodipodi="http://sodipodi.sourceforge.net/DTD/sodipodi-0.dtd"
   xmlns:inkscape="http://www.inkscape.org/namespaces/inkscape"
   inkscape:version="1.0beta2 (f3d5b5a, 2020-03-13)"
   sodipodi:docname="lika-logo.svg"
   xml:space="preserve"
   style="enable-background:new 0 0 122 33;"
   viewBox="0 0 122 33"
   y="0px"
   x="0px"
   id="Layer_1"
   version="1.1"><metadata
   id="metadata460"><rdf:RDF><cc:Work
       rdf:about=""><dc:format>image/svg+xml</dc:format><dc:type
         rdf:resource="http://purl.org/dc/dcmitype/StillImage" /></cc:Work></rdf:RDF></metadata><defs
   id="defs458" /><sodipodi:namedview
   inkscape:current-layer="Layer_1"
   inkscape:window-maximized="0"
   inkscape:window-y="0"
   inkscape:window-x="0"
   inkscape:cy="16.5"
   inkscape:cx="20.208589"
   inkscape:zoom="4.0081967"
   showgrid="false"
   id="namedview456"
   inkscape:window-height="911"
   inkscape:window-width="1790"
   inkscape:pageshadow="2"
   inkscape:pageopacity="0"
   guidetolerance="10"
   gridtolerance="10"
   objecttolerance="10"
   borderopacity="1"
   bordercolor="#666666"
   pagecolor="#ffffff" />
<style
   id="style325"
   type="text/css">
	.st0{clip-path:url(#SVGID_2_);}
	.st1{clip-path:url(#SVGID_4_);fill:#00347A;}
	.st2{clip-path:url(#SVGID_6_);}
	.st3{clip-path:url(#SVGID_8_);fill:#FFFFFF;}
	.st4{clip-path:url(#SVGID_10_);}
	.st5{clip-path:url(#SVGID_12_);fill:#FFFFFF;}
	.st6{clip-path:url(#SVGID_14_);}
	.st7{clip-path:url(#SVGID_16_);fill:#FFFFFF;}
	.st8{clip-path:url(#SVGID_18_);}
	.st9{clip-path:url(#SVGID_20_);fill:#FFFFFF;}
	.st10{fill:#00347A;}
</style>
<g
   transform="translate(-7.7341514,-0.4989775)"
   id="g453">
	<g
   id="g417">
		<g
   id="g343">
			<defs
   id="defs328">
				<path
   inkscape:connector-curvature="0"
   d="M 27.1,26.4 H 8.5 C 8.2,26.4 7.9,26.1 7.9,25.8 V 7.2 C 7.9,6.9 8.2,6.6 8.5,6.6 h 18.6 c 0.3,0 0.6,0.3 0.6,0.6 v 18.6 c 0,0.3 -0.3,0.6 -0.6,0.6 z"
   id="SVGID_1_" />
			</defs>
			<clipPath
   id="SVGID_2_">
				<use
   height="100%"
   width="100%"
   y="0"
   x="0"
   id="use330"
   style="overflow:visible"
   xlink:href="#SVGID_1_" />
			</clipPath>
			<g
   id="g341"
   clip-path="url(#SVGID_2_)"
   class="st0">
				<defs
   id="defs334">
					<rect
   height="19.799999"
   width="101.6"
   y="6.5999999"
   x="7.9000001"
   id="SVGID_3_" />
				</defs>
				<clipPath
   id="SVGID_4_">
					<use
   height="100%"
   width="100%"
   y="0"
   x="0"
   id="use336"
   style="overflow:visible"
   xlink:href="#SVGID_3_" />
				</clipPath>
				<rect
   id="rect339"
   clip-path="url(#SVGID_4_)"
   height="26"
   width="26"
   class="st1"
   y="3.5"
   x="4.8000002" />
			</g>
		</g>
		<g
   id="g361">
			<defs
   id="defs346">
				<path
   inkscape:connector-curvature="0"
   d="m 12.9,14 v -1.8 c 0,-0.4 0.3,-0.7 0.7,-0.7 h 1.8 V 14"
   id="SVGID_5_" />
			</defs>
			<clipPath
   id="SVGID_6_">
				<use
   height="100%"
   width="100%"
   y="0"
   x="0"
   id="use348"
   style="overflow:visible"
   xlink:href="#SVGID_5_" />
			</clipPath>
			<g
   id="g359"
   clip-path="url(#SVGID_6_)"
   class="st2">
				<defs
   id="defs352">
					<rect
   height="19.799999"
   width="101.6"
   y="6.5999999"
   x="7.9000001"
   id="SVGID_7_" />
				</defs>
				<clipPath
   id="SVGID_8_">
					<use
   height="100%"
   width="100%"
   y="0"
   x="0"
   id="use354"
   style="overflow:visible"
   xlink:href="#SVGID_7_" />
				</clipPath>
				<rect
   id="rect357"
   clip-path="url(#SVGID_8_)"
   height="8.6999998"
   width="8.6999998"
   class="st3"
   y="8.3999996"
   x="9.8000002" />
			</g>
		</g>
		<g
   id="g379">
			<defs
   id="defs364">
				<path
   inkscape:connector-curvature="0"
   d="m 12.9,16.5 h 2.5 v 4.6 c 0,0.2 -0.2,0.3 -0.4,0.3 h -1.8 c -0.2,0 -0.4,-0.1 -0.4,-0.3"
   id="SVGID_9_" />
			</defs>
			<clipPath
   id="SVGID_10_">
				<use
   height="100%"
   width="100%"
   y="0"
   x="0"
   id="use366"
   style="overflow:visible"
   xlink:href="#SVGID_9_" />
			</clipPath>
			<g
   id="g377"
   clip-path="url(#SVGID_10_)"
   class="st4">
				<defs
   id="defs370">
					<rect
   height="19.799999"
   width="101.6"
   y="6.5999999"
   x="7.9000001"
   id="SVGID_11_" />
				</defs>
				<clipPath
   id="SVGID_12_">
					<use
   height="100%"
   width="100%"
   y="0"
   x="0"
   id="use372"
   style="overflow:visible"
   xlink:href="#SVGID_11_" />
				</clipPath>
				<rect
   id="rect375"
   clip-path="url(#SVGID_12_)"
   height="11.2"
   width="8.6999998"
   class="st5"
   y="13.4"
   x="9.8000002" />
			</g>
		</g>
		<g
   id="g397">
			<defs
   id="defs382">
				<path
   inkscape:connector-curvature="0"
   d="m 17.8,11.5 h 4.6 c 0.2,0 0.4,0.2 0.4,0.4 V 14 h -5"
   id="SVGID_13_" />
			</defs>
			<clipPath
   id="SVGID_14_">
				<use
   height="100%"
   width="100%"
   y="0"
   x="0"
   id="use384"
   style="overflow:visible"
   xlink:href="#SVGID_13_" />
			</clipPath>
			<g
   id="g395"
   clip-path="url(#SVGID_14_)"
   class="st6">
				<defs
   id="defs388">
					<rect
   height="19.799999"
   width="101.6"
   y="6.5999999"
   x="7.9000001"
   id="SVGID_15_" />
				</defs>
				<clipPath
   id="SVGID_16_">
					<use
   height="100%"
   width="100%"
   y="0"
   x="0"
   id="use390"
   style="overflow:visible"
   xlink:href="#SVGID_15_" />
				</clipPath>
				<rect
   id="rect393"
   clip-path="url(#SVGID_16_)"
   height="8.6999998"
   width="11.2"
   class="st7"
   y="8.3999996"
   x="14.7" />
			</g>
		</g>
		<g
   id="g415">
			<defs
   id="defs400">
				<path
   inkscape:connector-curvature="0"
   d="m 22.4,19 h -4.6 v -2.5 h 5 v 2.1 c 0,0.2 -0.2,0.4 -0.4,0.4"
   id="SVGID_17_" />
			</defs>
			<clipPath
   id="SVGID_18_">
				<use
   height="100%"
   width="100%"
   y="0"
   x="0"
   id="use402"
   style="overflow:visible"
   xlink:href="#SVGID_17_" />
			</clipPath>
			<g
   id="g413"
   clip-path="url(#SVGID_18_)"
   class="st8">
				<defs
   id="defs406">
					<rect
   height="19.799999"
   width="101.6"
   y="6.5999999"
   x="7.9000001"
   id="SVGID_19_" />
				</defs>
				<clipPath
   id="SVGID_20_">
					<use
   height="100%"
   width="100%"
   y="0"
   x="0"
   id="use408"
   style="overflow:visible"
   xlink:href="#SVGID_19_" />
				</clipPath>
				<rect
   id="rect411"
   clip-path="url(#SVGID_20_)"
   height="8.6999998"
   width="11.2"
   class="st9"
   y="13.4"
   x="14.7" />
			</g>
		</g>
	</g>
	<g
   id="g451">
		<path
   inkscape:connector-curvature="0"
   id="path419"
   d="m 35.1,21.5 v -9 h 1.2 v 7.9 h 3.2 l 0.2,1.1 z"
   class="st10" />
		<path
   inkscape:connector-curvature="0"
   id="path421"
   d="m 41.5,14.1 c -0.4,0 -0.7,-0.3 -0.7,-0.7 0,-0.4 0.3,-0.7 0.7,-0.7 0.4,0 0.7,0.3 0.7,0.7 0,0.4 -0.3,0.7 -0.7,0.7 z m -0.6,7.4 v -6.2 h 1.2 v 6.2 z"
   class="st10" />
		<path
   inkscape:connector-curvature="0"
   id="path423"
   d="m 44.4,14.1 c -0.4,0 -0.7,-0.3 -0.7,-0.7 0,-0.4 0.3,-0.7 0.7,-0.7 0.4,0 0.7,0.3 0.7,0.7 0,0.4 -0.3,0.7 -0.7,0.7 z m -0.6,7.4 V 15.3 H 45 v 6.2 z"
   class="st10" />
		<path
   inkscape:connector-curvature="0"
   id="path425"
   d="m 48.7,21.7 c -1.1,0 -1.8,-0.4 -1.8,-1.6 V 16.4 H 46 v -1 h 0.9 V 13.3 L 48,13.1 v 2.2 h 1.3 l 0.2,1 H 48 v 3.5 c 0,0.5 0.2,0.8 0.9,0.8 0.2,0 0.4,0 0.5,0 l 0.2,1 c -0.2,0 -0.5,0.1 -0.9,0.1 z"
   class="st10" />
		<path
   inkscape:connector-curvature="0"
   id="path427"
   d="m 53.4,22.1 c -0.5,1.4 -1.2,1.8 -2.2,1.8 -0.2,0 -0.3,0 -0.4,-0.1 l -0.2,-1 c 0.2,0.1 0.4,0.1 0.7,0.1 0.5,0 0.8,-0.2 1,-0.7 l 0.2,-0.6 -2.3,-6.1 1.1,-0.2 1.7,4.9 1.7,-4.9 h 1.2 z"
   class="st10" />
		<path
   inkscape:connector-curvature="0"
   id="path429"
   d="m 60.8,21.5 v -4.2 c 0,-0.6 -0.3,-1.1 -0.9,-1.1 -0.6,0 -1.2,0.4 -1.8,1 v 4.3 h -1.2 v -6.2 h 0.9 l 0.1,0.9 c 0.6,-0.5 1.3,-1 2.2,-1 1.2,0 1.8,0.7 1.8,1.8 v 4.5 z"
   class="st10" />
		<path
   inkscape:connector-curvature="0"
   id="path431"
   d="m 65.7,21.7 c -1.1,0 -1.8,-0.4 -1.8,-1.6 V 16.4 H 63 v -1 h 0.9 V 13.3 L 65,13.1 v 2.2 h 1.3 l 0.2,1 H 65 v 3.5 c 0,0.5 0.2,0.8 0.9,0.8 0.2,0 0.4,0 0.5,0 l 0.2,1 c -0.2,0 -0.5,0.1 -0.9,0.1 z"
   class="st10" />
		<path
   inkscape:connector-curvature="0"
   id="path433"
   d="m 71.5,21.5 -0.1,-0.8 c -0.5,0.5 -1.2,1 -2.2,1 -1.1,0 -1.8,-0.7 -1.8,-1.7 0,-1.5 1.3,-2.2 3.9,-2.4 v -0.3 c 0,-0.8 -0.5,-1.1 -1.2,-1.1 -0.8,0 -1.5,0.2 -2.1,0.5 l -0.2,-1 c 0.7,-0.3 1.4,-0.5 2.4,-0.5 1.5,0 2.2,0.6 2.2,2 v 4.3 z m -3.2,-7.1 v -1.3 h 1.3 v 1.3 z m 3,4 c -2.3,0.2 -2.8,0.8 -2.8,1.5 0,0.5 0.3,0.8 0.9,0.8 0.7,0 1.3,-0.3 1.8,-0.9 v -1.4 z m -0.7,-4 v -1.3 h 1.3 v 1.3 z"
   class="st10" />
		<path
   inkscape:connector-curvature="0"
   id="path435"
   d="m 78,21.6 -2.8,-3.3 v 3.3 H 74 v -9.2 l 1.2,-0.2 V 18 l 2.4,-2.6 H 79 l -2.6,2.7 2.8,3.4 z"
   class="st10" />
		<path
   inkscape:connector-curvature="0"
   id="path437"
   d="m 83.9,21.5 -0.1,-0.8 c -0.5,0.5 -1.2,1 -2.2,1 -1.1,0 -1.8,-0.7 -1.8,-1.7 0,-1.5 1.3,-2.2 3.9,-2.4 v -0.3 c 0,-0.8 -0.5,-1.1 -1.2,-1.1 -0.8,0 -1.5,0.2 -2.1,0.5 l -0.2,-1 c 0.7,-0.3 1.4,-0.5 2.4,-0.5 1.5,0 2.2,0.6 2.2,2 v 4.3 z m -0.3,-3.1 c -2.3,0.2 -2.8,0.8 -2.8,1.5 0,0.5 0.3,0.8 0.9,0.8 0.7,0 1.3,-0.3 1.8,-0.9 v -1.4 z"
   class="st10" />
		<path
   inkscape:connector-curvature="0"
   id="path439"
   d="m 88.5,21.7 c -1.1,0 -1.8,-0.4 -1.8,-1.6 v -3.7 h -0.9 v -1 h 0.9 v -2.1 l 1.1,-0.2 v 2.2 h 1.3 l 0.2,1 h -1.5 v 3.5 c 0,0.5 0.2,0.8 0.9,0.8 0.2,0 0.4,0 0.5,0 l 0.2,1 c -0.2,0 -0.5,0.1 -0.9,0.1 z"
   class="st10" />
		<path
   inkscape:connector-curvature="0"
   id="path441"
   d="m 94.3,21.5 -0.1,-0.8 c -0.5,0.5 -1.2,1 -2.2,1 -1.1,0 -1.8,-0.7 -1.8,-1.7 0,-1.5 1.3,-2.2 3.9,-2.4 v -0.3 c 0,-0.8 -0.5,-1.1 -1.2,-1.1 -0.8,0 -1.5,0.2 -2.1,0.5 l -0.2,-1 c 0.7,-0.3 1.4,-0.5 2.4,-0.5 1.5,0 2.2,0.6 2.2,2 v 4.3 z m -0.2,-3.1 c -2.3,0.2 -2.8,0.8 -2.8,1.5 0,0.5 0.3,0.8 0.9,0.8 0.7,0 1.3,-0.3 1.8,-0.9 v -1.4 z"
   class="st10" />
		<path
   inkscape:connector-curvature="0"
   id="path443"
   d="m 96.9,21.5 v -9.2 l 1.2,-0.2 v 9.4 z"
   class="st10" />
		<path
   inkscape:connector-curvature="0"
   id="path445"
   d="m 102.2,21.7 c -1.7,0 -2.8,-1.2 -2.8,-3.2 0,-2 1.2,-3.2 2.8,-3.2 1.7,0 2.9,1.2 2.9,3.2 0,2 -1.2,3.2 -2.9,3.2 z m 0,-5.5 c -1.1,0 -1.7,1 -1.7,2.3 0,1.3 0.6,2.3 1.7,2.3 1.1,0 1.7,-1 1.7,-2.3 0,-1.3 -0.6,-2.3 -1.7,-2.3 z"
   class="st10" />
		<path
   inkscape:connector-curvature="0"
   id="path447"
   d="m 111.6,15.3 0.2,1 -1.2,0.1 c 0.2,0.3 0.2,0.6 0.2,1 0,1.3 -1.1,2.1 -2.4,2.1 -0.2,0 -0.3,0 -0.5,0 -0.2,0.1 -0.3,0.3 -0.3,0.4 0,0.2 0.2,0.3 1.3,0.5 l 0.4,0.1 c 1.3,0.2 2.1,0.7 2.1,1.6 0,1.3 -1.4,1.9 -3,1.9 -1.6,0 -2.9,-0.5 -2.9,-1.6 0,-0.6 0.4,-1.1 1.3,-1.6 -0.3,-0.2 -0.4,-0.4 -0.4,-0.7 0,-0.3 0.2,-0.6 0.7,-0.8 -0.7,-0.3 -1.2,-1 -1.2,-1.8 0,-1.3 1.1,-2.2 2.4,-2.2 0.6,0 1.2,0.2 1.6,0.5 z m -4.8,6.9 c 0,0.5 0.6,0.9 1.8,0.9 1.2,0 1.9,-0.4 1.9,-0.9 0,-0.4 -0.3,-0.6 -1.2,-0.8 l -0.7,-0.1 c -0.3,-0.1 -0.5,-0.1 -0.8,-0.2 -0.7,0.3 -1,0.7 -1,1.1 z m 1.7,-6.1 c -0.8,0 -1.3,0.6 -1.3,1.4 0,0.7 0.5,1.3 1.3,1.3 0.8,0 1.3,-0.6 1.3,-1.3 0,-0.7 -0.6,-1.4 -1.3,-1.4 z"
   class="st10" />
		<path
   inkscape:connector-curvature="0"
   id="path449"
   d="m 113.4,14.1 c -0.4,0 -0.7,-0.3 -0.7,-0.7 0,-0.4 0.3,-0.7 0.7,-0.7 0.4,0 0.7,0.3 0.7,0.7 0,0.4 -0.3,0.7 -0.7,0.7 z m -0.6,7.4 v -6.2 h 1.2 v 6.2 z"
   class="st10" />
	</g>
</g>
</svg>
