<?xml version="1.0" encoding="UTF-8" standalone="no"?>
<svg
   xmlns:dc="http://purl.org/dc/elements/1.1/"
   xmlns:cc="http://creativecommons.org/ns#"
   xmlns:rdf="http://www.w3.org/1999/02/22-rdf-syntax-ns#"
   xmlns:svg="http://www.w3.org/2000/svg"
   xmlns="http://www.w3.org/2000/svg"
   xmlns:xlink="http://www.w3.org/1999/xlink"
   xmlns:sodipodi="http://sodipodi.sourceforge.net/DTD/sodipodi-0.dtd"
   xmlns:inkscape="http://www.inkscape.org/namespaces/inkscape"
   inkscape:version="1.0beta2 (f3d5b5a, 2020-03-13)"
   sodipodi:docname="lika-logo-qa.svg"
   xml:space="preserve"
   style="enable-background:new 0 0 245 56;"
   viewBox="0 0 245 56"
   y="0px"
   x="0px"
   id="Layer_1"
   version="1.1"><metadata
   id="metadata742"><rdf:RDF><cc:Work
       rdf:about=""><dc:format>image/svg+xml</dc:format><dc:type
         rdf:resource="http://purl.org/dc/dcmitype/StillImage" /></cc:Work></rdf:RDF></metadata><defs
   id="defs740" /><sodipodi:namedview
   inkscape:current-layer="Layer_1"
   inkscape:window-maximized="0"
   inkscape:window-y="0"
   inkscape:window-x="0"
   inkscape:cy="28"
   inkscape:cx="122.5"
   inkscape:zoom="4.2763761"
   showgrid="false"
   id="namedview738"
   inkscape:window-height="727"
   inkscape:window-width="1665"
   inkscape:pageshadow="2"
   inkscape:pageopacity="0"
   guidetolerance="10"
   gridtolerance="10"
   objecttolerance="10"
   borderopacity="1"
   bordercolor="#666666"
   pagecolor="#ffffff" />
<style
   id="style603"
   type="text/css">
	.st0{clip-path:url(#SVGID_2_);}
	.st1{clip-path:url(#SVGID_4_);fill:#00347A;}
	.st2{clip-path:url(#SVGID_6_);}
	.st3{clip-path:url(#SVGID_8_);fill:#FFFFFF;}
	.st4{clip-path:url(#SVGID_10_);}
	.st5{clip-path:url(#SVGID_12_);fill:#FFFFFF;}
	.st6{clip-path:url(#SVGID_14_);}
	.st7{clip-path:url(#SVGID_16_);fill:#FFFFFF;}
	.st8{clip-path:url(#SVGID_18_);}
	.st9{clip-path:url(#SVGID_20_);fill:#FFFFFF;}
	.st10{fill:#00347A;}
	.st11{clip-path:url(#SVGID_22_);}
	.st12{clip-path:url(#SVGID_24_);fill:#00347A;}
	.st13{clip-path:url(#SVGID_26_);}
	.st14{clip-path:url(#SVGID_28_);fill:#FFFFFF;}
	.st15{clip-path:url(#SVGID_30_);}
	.st16{clip-path:url(#SVGID_32_);fill:#FFFFFF;}
	.st17{clip-path:url(#SVGID_34_);}
	.st18{clip-path:url(#SVGID_36_);fill:#FFFFFF;}
	.st19{clip-path:url(#SVGID_38_);}
	.st20{clip-path:url(#SVGID_40_);fill:#FFFFFF;}
</style>
<g
   transform="translate(-18.003473,-0.50102249)"
   id="g695">
	<g
   id="g621">
		<defs
   id="defs606">
			<path
   inkscape:connector-curvature="0"
   d="m 49.2,44.16 h -30 c -0.55,0 -1,-0.45 -1,-1 v -30 c 0,-0.55 0.45,-1 1,-1 h 30 c 0.55,0 1,0.45 1,1 v 30 c 0,0.55 -0.45,1 -1,1 z"
   id="SVGID_1_" />
		</defs>
		<clipPath
   id="SVGID_2_">
			<use
   height="100%"
   width="100%"
   y="0"
   x="0"
   id="use608"
   style="overflow:visible"
   xlink:href="#SVGID_1_" />
		</clipPath>
		<g
   id="g619"
   clip-path="url(#SVGID_2_)"
   class="st0">
			<defs
   id="defs612">
				<rect
   height="32"
   width="164"
   y="12.16"
   x="18.200001"
   id="SVGID_3_" />
			</defs>
			<clipPath
   id="SVGID_4_">
				<use
   height="100%"
   width="100%"
   y="0"
   x="0"
   id="use614"
   style="overflow:visible"
   xlink:href="#SVGID_3_" />
			</clipPath>
			<rect
   id="rect617"
   clip-path="url(#SVGID_4_)"
   height="42"
   width="42"
   class="st1"
   y="7.1599998"
   x="13.2" />
		</g>
	</g>
	<g
   id="g639">
		<defs
   id="defs624">
			<path
   inkscape:connector-curvature="0"
   d="M 26.2,24.16 V 21.3 c 0,-0.63 0.51,-1.14 1.14,-1.14 h 2.86 v 4"
   id="SVGID_5_" />
		</defs>
		<clipPath
   id="SVGID_6_">
			<use
   height="100%"
   width="100%"
   y="0"
   x="0"
   id="use626"
   style="overflow:visible"
   xlink:href="#SVGID_5_" />
		</clipPath>
		<g
   id="g637"
   clip-path="url(#SVGID_6_)"
   class="st2">
			<defs
   id="defs630">
				<rect
   height="32"
   width="164"
   y="12.16"
   x="18.200001"
   id="SVGID_7_" />
			</defs>
			<clipPath
   id="SVGID_8_">
				<use
   height="100%"
   width="100%"
   y="0"
   x="0"
   id="use632"
   style="overflow:visible"
   xlink:href="#SVGID_7_" />
			</clipPath>
			<rect
   id="rect635"
   clip-path="url(#SVGID_8_)"
   height="14"
   width="14"
   class="st3"
   y="15.16"
   x="21.200001" />
		</g>
	</g>
	<g
   id="g657">
		<defs
   id="defs642">
			<path
   inkscape:connector-curvature="0"
   d="m 26.2,28.16 h 4 v 7.47 c 0,0.29 -0.26,0.53 -0.57,0.53 h -2.86 c -0.31,0 -0.57,-0.24 -0.57,-0.53"
   id="SVGID_9_" />
		</defs>
		<clipPath
   id="SVGID_10_">
			<use
   height="100%"
   width="100%"
   y="0"
   x="0"
   id="use644"
   style="overflow:visible"
   xlink:href="#SVGID_9_" />
		</clipPath>
		<g
   id="g655"
   clip-path="url(#SVGID_10_)"
   class="st4">
			<defs
   id="defs648">
				<rect
   height="32"
   width="164"
   y="12.16"
   x="18.200001"
   id="SVGID_11_" />
			</defs>
			<clipPath
   id="SVGID_12_">
				<use
   height="100%"
   width="100%"
   y="0"
   x="0"
   id="use650"
   style="overflow:visible"
   xlink:href="#SVGID_11_" />
			</clipPath>
			<rect
   id="rect653"
   clip-path="url(#SVGID_12_)"
   height="18"
   width="14"
   class="st5"
   y="23.16"
   x="21.200001" />
		</g>
	</g>
	<g
   id="g675">
		<defs
   id="defs660">
			<path
   inkscape:connector-curvature="0"
   d="m 34.2,20.16 h 7.43 c 0.31,0 0.57,0.26 0.57,0.57 v 3.43 h -8"
   id="SVGID_13_" />
		</defs>
		<clipPath
   id="SVGID_14_">
			<use
   height="100%"
   width="100%"
   y="0"
   x="0"
   id="use662"
   style="overflow:visible"
   xlink:href="#SVGID_13_" />
		</clipPath>
		<g
   id="g673"
   clip-path="url(#SVGID_14_)"
   class="st6">
			<defs
   id="defs666">
				<rect
   height="32"
   width="164"
   y="12.16"
   x="18.200001"
   id="SVGID_15_" />
			</defs>
			<clipPath
   id="SVGID_16_">
				<use
   height="100%"
   width="100%"
   y="0"
   x="0"
   id="use668"
   style="overflow:visible"
   xlink:href="#SVGID_15_" />
			</clipPath>
			<rect
   id="rect671"
   clip-path="url(#SVGID_16_)"
   height="14"
   width="18"
   class="st7"
   y="15.16"
   x="29.200001" />
		</g>
	</g>
	<g
   id="g693">
		<defs
   id="defs678">
			<path
   inkscape:connector-curvature="0"
   d="M 41.63,32.16 H 34.2 v -4 h 8 v 3.43 c 0,0.31 -0.25,0.57 -0.57,0.57"
   id="SVGID_17_" />
		</defs>
		<clipPath
   id="SVGID_18_">
			<use
   height="100%"
   width="100%"
   y="0"
   x="0"
   id="use680"
   style="overflow:visible"
   xlink:href="#SVGID_17_" />
		</clipPath>
		<g
   id="g691"
   clip-path="url(#SVGID_18_)"
   class="st8">
			<defs
   id="defs684">
				<rect
   height="32"
   width="164"
   y="12.16"
   x="18.200001"
   id="SVGID_19_" />
			</defs>
			<clipPath
   id="SVGID_20_">
				<use
   height="100%"
   width="100%"
   y="0"
   x="0"
   id="use686"
   style="overflow:visible"
   xlink:href="#SVGID_19_" />
			</clipPath>
			<rect
   id="rect689"
   clip-path="url(#SVGID_20_)"
   height="14"
   width="18"
   class="st9"
   y="23.16"
   x="29.200001" />
		</g>
	</g>
</g>
<g
   transform="translate(-18.003473,-0.50102249)"
   id="g729">
	<path
   inkscape:connector-curvature="0"
   id="path697"
   d="M 62.15,36.3 V 21.82 h 1.97 V 34.5 h 5.23 l 0.27,1.81 h -7.47 z"
   class="st10" />
	<path
   inkscape:connector-curvature="0"
   id="path699"
   d="m 72.43,24.27 c -0.65,0 -1.2,-0.52 -1.2,-1.18 0,-0.65 0.55,-1.2 1.2,-1.2 0.65,0 1.18,0.55 1.18,1.2 -0.01,0.66 -0.53,1.18 -1.18,1.18 z M 71.48,36.3 V 26.29 h 1.87 V 36.3 Z"
   class="st10" />
	<path
   inkscape:connector-curvature="0"
   id="path701"
   d="m 77.04,24.27 c -0.65,0 -1.2,-0.52 -1.2,-1.18 0,-0.65 0.55,-1.2 1.2,-1.2 0.65,0 1.18,0.55 1.18,1.2 0,0.66 -0.52,1.18 -1.18,1.18 z M 76.1,36.3 V 26.29 h 1.87 V 36.3 Z"
   class="st10" />
	<path
   inkscape:connector-curvature="0"
   id="path703"
   d="m 84.04,36.47 c -1.76,0 -2.92,-0.63 -2.92,-2.65 v -5.96 h -1.51 v -1.58 h 1.51 v -3.34 l 1.83,-0.27 v 3.61 h 2.16 l 0.25,1.58 h -2.41 v 5.63 c 0,0.82 0.34,1.32 1.39,1.32 0.34,0 0.63,-0.02 0.86,-0.06 l 0.25,1.6 c -0.32,0.06 -0.76,0.12 -1.41,0.12 z"
   class="st10" />
	<path
   inkscape:connector-curvature="0"
   id="path705"
   d="m 91.71,37.18 c -0.86,2.33 -1.93,2.94 -3.59,2.94 -0.25,0 -0.46,-0.04 -0.65,-0.08 L 87.22,38.4 c 0.31,0.08 0.69,0.15 1.05,0.15 0.78,0 1.3,-0.38 1.6,-1.18 l 0.38,-1.03 -3.65,-9.91 1.85,-0.29 2.73,7.98 2.67,-7.83 h 1.91 z"
   class="st10" />
	<path
   inkscape:connector-curvature="0"
   id="path707"
   d="m 103.65,36.3 v -6.82 c 0,-1.03 -0.44,-1.72 -1.53,-1.72 -0.99,0 -2,0.65 -2.9,1.62 v 6.93 H 97.35 V 26.29 h 1.49 l 0.23,1.45 c 0.95,-0.86 2.12,-1.66 3.55,-1.66 1.89,0 2.9,1.13 2.9,2.94 v 7.29 h -1.87 z"
   class="st10" />
	<path
   inkscape:connector-curvature="0"
   id="path709"
   d="m 111.47,36.47 c -1.76,0 -2.92,-0.63 -2.92,-2.65 v -5.96 h -1.51 v -1.58 h 1.51 v -3.34 l 1.83,-0.27 v 3.61 h 2.16 l 0.25,1.58 h -2.41 v 5.63 c 0,0.82 0.34,1.32 1.39,1.32 0.34,0 0.63,-0.02 0.86,-0.06 l 0.25,1.6 c -0.32,0.06 -0.76,0.12 -1.41,0.12 z"
   class="st10" />
	<path
   inkscape:connector-curvature="0"
   id="path711"
   d="m 120.85,36.3 -0.21,-1.34 c -0.8,0.82 -1.89,1.55 -3.53,1.55 -1.81,0 -2.94,-1.09 -2.94,-2.79 0,-2.5 2.14,-3.49 6.32,-3.93 v -0.42 c 0,-1.26 -0.76,-1.7 -1.91,-1.7 -1.22,0 -2.37,0.38 -3.46,0.86 l -0.25,-1.62 c 1.2,-0.48 2.33,-0.84 3.88,-0.84 2.44,0 3.61,0.99 3.61,3.21 v 7.01 h -1.51 z m -5.21,-11.57 v -2.12 h 2.08 v 2.12 z m 4.85,6.49 c -3.7,0.36 -4.47,1.36 -4.47,2.39 0,0.82 0.54,1.34 1.49,1.34 1.09,0 2.14,-0.55 2.98,-1.41 z m -1.09,-6.49 v -2.12 h 2.08 v 2.12 z"
   class="st10" />
	<path
   inkscape:connector-curvature="0"
   id="path713"
   d="m 131.26,36.45 -4.45,-5.4 v 5.25 h -1.87 V 21.44 l 1.87,-0.29 v 9.34 l 3.88,-4.2 h 2.25 l -4.22,4.43 4.58,5.42 z"
   class="st10" />
	<path
   inkscape:connector-curvature="0"
   id="path715"
   d="m 140.79,36.3 -0.21,-1.34 c -0.8,0.82 -1.89,1.55 -3.53,1.55 -1.81,0 -2.94,-1.09 -2.94,-2.79 0,-2.5 2.14,-3.49 6.32,-3.93 v -0.42 c 0,-1.26 -0.76,-1.7 -1.91,-1.7 -1.22,0 -2.37,0.38 -3.46,0.86 l -0.25,-1.62 c 1.2,-0.48 2.33,-0.84 3.88,-0.84 2.44,0 3.61,0.99 3.61,3.21 v 7.01 h -1.51 z m -0.35,-5.08 c -3.7,0.36 -4.47,1.36 -4.47,2.39 0,0.82 0.54,1.34 1.49,1.34 1.09,0 2.14,-0.55 2.98,-1.41 z"
   class="st10" />
	<path
   inkscape:connector-curvature="0"
   id="path717"
   d="m 148.24,36.47 c -1.76,0 -2.92,-0.63 -2.92,-2.65 v -5.96 h -1.51 v -1.58 h 1.51 v -3.34 l 1.83,-0.27 v 3.61 h 2.16 l 0.25,1.58 h -2.41 v 5.63 c 0,0.82 0.34,1.32 1.39,1.32 0.34,0 0.63,-0.02 0.86,-0.06 l 0.25,1.6 c -0.32,0.06 -0.76,0.12 -1.41,0.12 z"
   class="st10" />
	<path
   inkscape:connector-curvature="0"
   id="path719"
   d="m 157.62,36.3 -0.21,-1.34 c -0.8,0.82 -1.89,1.55 -3.53,1.55 -1.8,0 -2.94,-1.09 -2.94,-2.79 0,-2.5 2.14,-3.49 6.32,-3.93 v -0.42 c 0,-1.26 -0.76,-1.7 -1.91,-1.7 -1.22,0 -2.37,0.38 -3.46,0.86 l -0.25,-1.62 c 1.2,-0.48 2.33,-0.84 3.88,-0.84 2.44,0 3.61,0.99 3.61,3.21 v 7.01 h -1.51 z m -0.36,-5.08 c -3.7,0.36 -4.47,1.36 -4.47,2.39 0,0.82 0.55,1.34 1.49,1.34 1.09,0 2.14,-0.55 2.98,-1.41 z"
   class="st10" />
	<path
   inkscape:connector-curvature="0"
   id="path721"
   d="M 161.78,36.3 V 21.44 l 1.87,-0.29 V 36.3 Z"
   class="st10" />
	<path
   inkscape:connector-curvature="0"
   id="path723"
   d="m 170.41,36.51 c -2.67,0 -4.6,-1.91 -4.6,-5.21 0,-3.3 1.93,-5.23 4.6,-5.23 2.69,0 4.66,1.93 4.66,5.23 0,3.3 -1.97,5.21 -4.66,5.21 z m 0,-8.86 c -1.81,0 -2.71,1.55 -2.71,3.65 0,2.06 0.95,3.65 2.71,3.65 1.85,0 2.77,-1.55 2.77,-3.65 0,-2.05 -0.96,-3.65 -2.77,-3.65 z"
   class="st10" />
	<path
   inkscape:connector-curvature="0"
   id="path725"
   d="m 185.61,26.14 0.27,1.68 -1.91,0.19 c 0.27,0.46 0.4,0.99 0.4,1.55 0,2.14 -1.8,3.44 -3.84,3.44 -0.25,0 -0.5,-0.02 -0.76,-0.06 -0.29,0.19 -0.5,0.42 -0.5,0.61 0,0.36 0.36,0.44 2.12,0.76 l 0.71,0.12 c 2.12,0.38 3.44,1.05 3.44,2.6 0,2.1 -2.29,3.09 -4.89,3.09 -2.6,0 -4.68,-0.82 -4.68,-2.58 0,-1.03 0.71,-1.83 2.12,-2.58 -0.44,-0.31 -0.63,-0.67 -0.63,-1.05 0,-0.48 0.38,-0.97 1.05,-1.36 -1.11,-0.55 -1.87,-1.62 -1.87,-2.98 0,-2.16 1.81,-3.48 3.84,-3.48 1.01,0 1.89,0.29 2.58,0.84 z m -7.86,11.25 c 0,0.8 1.03,1.39 2.98,1.39 1.95,0 3.04,-0.67 3.04,-1.51 0,-0.61 -0.46,-1.03 -1.89,-1.28 l -1.2,-0.21 c -0.55,-0.1 -0.84,-0.17 -1.24,-0.25 -1.16,0.58 -1.69,1.17 -1.69,1.86 z m 2.73,-9.95 c -1.26,0 -2.04,0.97 -2.04,2.18 0,1.16 0.8,2.06 2.04,2.06 1.28,0 2.08,-0.95 2.08,-2.14 0,-1.19 -0.84,-2.1 -2.08,-2.1 z"
   class="st10" />
	<path
   inkscape:connector-curvature="0"
   id="path727"
   d="m 188.42,24.27 c -0.65,0 -1.2,-0.52 -1.2,-1.18 0,-0.65 0.55,-1.2 1.2,-1.2 0.65,0 1.18,0.55 1.18,1.2 0,0.66 -0.53,1.18 -1.18,1.18 z M 187.48,36.3 V 26.29 h 1.87 V 36.3 Z"
   class="st10" />
</g>
<g
   transform="translate(-18.003473,-0.50102249)"
   id="g735">
	<path
   inkscape:connector-curvature="0"
   id="path731"
   d="m 200.44,25.33 c -2.42,-0.9 -3.67,-2.75 -3.67,-5.57 0,-3.43 2,-5.75 5.11,-5.75 3.12,0 5.07,2.31 5.07,5.71 0,2.8 -1.36,4.71 -3.41,5.38 l 3.17,1.12 -0.3,1.33 z m 1.42,-9.94 c -2.19,0 -3.54,1.7 -3.54,4.35 0,2.65 1.36,4.43 3.54,4.43 2.19,0 3.54,-1.78 3.54,-4.43 0,-2.65 -1.36,-4.35 -3.54,-4.35 z"
   class="st10" />
	<path
   inkscape:connector-curvature="0"
   id="path733"
   d="m 215.88,21.95 h -4.5 l -1.23,3.31 h -1.57 l 4.32,-11.09 h 1.5 l 4.26,10.88 -1.49,0.32 z m -4,-1.33 h 3.5 l -1.76,-4.69 z"
   class="st10" />
</g>
</svg>
