<?xml version="1.0" encoding="UTF-8"?>
<svg width="20px" height="20px" viewBox="0 0 20 20" version="1.1" xmlns="http://www.w3.org/2000/svg" xmlns:xlink="http://www.w3.org/1999/xlink">
    <!-- Generator: Sketch 61 (89581) - https://sketch.com -->
    <title>flogo-HexRBG-Wht-58</title>
    <desc>Created with Sketch.</desc>
    <g id="Etusivu" stroke="none" stroke-width="1" fill="none" fill-rule="evenodd">
        <g id="UUSI-Etusivu---XL-Copy" transform="translate(-1111.000000, -2496.000000)" fill="#FFFFFF" fill-rule="nonzero">
            <g id="flogo-HexRBG-Wht-58" transform="translate(1111.000000, 2496.000000)">
                <path d="M18.8947368,0 L1.10526316,0 C0.494843171,0 0,0.494843171 0,1.10526316 L0,18.8947368 C0,19.5051568 0.494843171,20 1.10526316,20 L10.6842105,20 L10.6842105,12.2807018 L8.07017544,12.2807018 L8.07017544,9.23859649 L10.6701754,9.23859649 L10.6701754,7.01754386 C10.6701754,4.43157895 12.245614,3.0245614 14.5508772,3.0245614 C15.3339911,3.02688814 16.1164111,3.07139706 16.8947368,3.15789474 L16.8947368,5.85614035 L15.3017544,5.85614035 C14.0491228,5.85614035 13.8070175,6.44912281 13.8070175,7.32280702 L13.8070175,9.25263158 L16.8070175,9.25263158 L16.4175439,12.2807018 L13.8070175,12.2807018 L13.8070175,20 L18.8947368,20 C19.5051568,20 20,19.5051568 20,18.8947368 L20,1.10526316 C20,0.494843171 19.5051568,0 18.8947368,0 Z" id="Shape"></path>
            </g>
        </g>
    </g>
</svg>