<?xml version="1.0" encoding="utf-8"?>
<!-- Generator: Adobe Illustrator 24.0.1, SVG Export Plug-In . SVG Version: 6.00 Build 0)  -->
<svg version="1.1" id="Layer_1" xmlns="http://www.w3.org/2000/svg" xmlns:xlink="http://www.w3.org/1999/xlink" x="0px" y="0px"
	 viewBox="0 0 245 56" style="enable-background:new 0 0 245 56;" xml:space="preserve">
<style type="text/css">
	.st0{clip-path:url(#SVGID_2_);}
	.st1{clip-path:url(#SVGID_4_);fill:#00347A;}
	.st2{clip-path:url(#SVGID_6_);}
	.st3{clip-path:url(#SVGID_8_);fill:#FFFFFF;}
	.st4{clip-path:url(#SVGID_10_);}
	.st5{clip-path:url(#SVGID_12_);fill:#FFFFFF;}
	.st6{clip-path:url(#SVGID_14_);}
	.st7{clip-path:url(#SVGID_16_);fill:#FFFFFF;}
	.st8{clip-path:url(#SVGID_18_);}
	.st9{clip-path:url(#SVGID_20_);fill:#FFFFFF;}
	.st10{fill:#00347A;}
	.st11{clip-path:url(#SVGID_22_);}
	.st12{clip-path:url(#SVGID_24_);fill:#00347A;}
	.st13{clip-path:url(#SVGID_26_);}
	.st14{clip-path:url(#SVGID_28_);fill:#FFFFFF;}
	.st15{clip-path:url(#SVGID_30_);}
	.st16{clip-path:url(#SVGID_32_);fill:#FFFFFF;}
	.st17{clip-path:url(#SVGID_34_);}
	.st18{clip-path:url(#SVGID_36_);fill:#FFFFFF;}
	.st19{clip-path:url(#SVGID_38_);}
	.st20{clip-path:url(#SVGID_40_);fill:#FFFFFF;}
</style>
<g>
	<g>
		<defs>
			<path id="SVGID_1_" d="M49.2,44.16h-30c-0.55,0-1-0.45-1-1v-30c0-0.55,0.45-1,1-1h30c0.55,0,1,0.45,1,1v30
				C50.2,43.71,49.75,44.16,49.2,44.16z"/>
		</defs>
		<clipPath id="SVGID_2_">
			<use xlink:href="#SVGID_1_"  style="overflow:visible;"/>
		</clipPath>
		<g class="st0">
			<defs>
				<rect id="SVGID_3_" x="18.2" y="12.16" width="164" height="32"/>
			</defs>
			<clipPath id="SVGID_4_">
				<use xlink:href="#SVGID_3_"  style="overflow:visible;"/>
			</clipPath>
			<rect x="13.2" y="7.16" class="st1" width="42" height="42"/>
		</g>
	</g>
	<g>
		<defs>
			<path id="SVGID_5_" d="M26.2,24.16V21.3c0-0.63,0.51-1.14,1.14-1.14h2.86v4"/>
		</defs>
		<clipPath id="SVGID_6_">
			<use xlink:href="#SVGID_5_"  style="overflow:visible;"/>
		</clipPath>
		<g class="st2">
			<defs>
				<rect id="SVGID_7_" x="18.2" y="12.16" width="164" height="32"/>
			</defs>
			<clipPath id="SVGID_8_">
				<use xlink:href="#SVGID_7_"  style="overflow:visible;"/>
			</clipPath>
			<rect x="21.2" y="15.16" class="st3" width="14" height="14"/>
		</g>
	</g>
	<g>
		<defs>
			<path id="SVGID_9_" d="M26.2,28.16h4v7.47c0,0.29-0.26,0.53-0.57,0.53h-2.86c-0.31,0-0.57-0.24-0.57-0.53"/>
		</defs>
		<clipPath id="SVGID_10_">
			<use xlink:href="#SVGID_9_"  style="overflow:visible;"/>
		</clipPath>
		<g class="st4">
			<defs>
				<rect id="SVGID_11_" x="18.2" y="12.16" width="164" height="32"/>
			</defs>
			<clipPath id="SVGID_12_">
				<use xlink:href="#SVGID_11_"  style="overflow:visible;"/>
			</clipPath>
			<rect x="21.2" y="23.16" class="st5" width="14" height="18"/>
		</g>
	</g>
	<g>
		<defs>
			<path id="SVGID_13_" d="M34.2,20.16h7.43c0.31,0,0.57,0.26,0.57,0.57v3.43h-8"/>
		</defs>
		<clipPath id="SVGID_14_">
			<use xlink:href="#SVGID_13_"  style="overflow:visible;"/>
		</clipPath>
		<g class="st6">
			<defs>
				<rect id="SVGID_15_" x="18.2" y="12.16" width="164" height="32"/>
			</defs>
			<clipPath id="SVGID_16_">
				<use xlink:href="#SVGID_15_"  style="overflow:visible;"/>
			</clipPath>
			<rect x="29.2" y="15.16" class="st7" width="18" height="14"/>
		</g>
	</g>
	<g>
		<defs>
			<path id="SVGID_17_" d="M41.63,32.16H34.2v-4h8v3.43C42.2,31.9,41.95,32.16,41.63,32.16"/>
		</defs>
		<clipPath id="SVGID_18_">
			<use xlink:href="#SVGID_17_"  style="overflow:visible;"/>
		</clipPath>
		<g class="st8">
			<defs>
				<rect id="SVGID_19_" x="18.2" y="12.16" width="164" height="32"/>
			</defs>
			<clipPath id="SVGID_20_">
				<use xlink:href="#SVGID_19_"  style="overflow:visible;"/>
			</clipPath>
			<rect x="29.2" y="23.16" class="st9" width="18" height="14"/>
		</g>
	</g>
</g>
<g>
	<path class="st10" d="M62.15,36.3V21.82h1.97V34.5h5.23l0.27,1.81H62.15z"/>
	<path class="st10" d="M72.43,24.27c-0.65,0-1.2-0.52-1.2-1.18c0-0.65,0.55-1.2,1.2-1.2s1.18,0.55,1.18,1.2
		C73.6,23.75,73.08,24.27,72.43,24.27z M71.48,36.3V26.29h1.87V36.3H71.48z"/>
	<path class="st10" d="M77.04,24.27c-0.65,0-1.2-0.52-1.2-1.18c0-0.65,0.55-1.2,1.2-1.2s1.18,0.55,1.18,1.2
		C78.22,23.75,77.7,24.27,77.04,24.27z M76.1,36.3V26.29h1.87V36.3H76.1z"/>
	<path class="st10" d="M84.04,36.47c-1.76,0-2.92-0.63-2.92-2.65v-5.96h-1.51v-1.58h1.51v-3.34l1.83-0.27v3.61h2.16l0.25,1.58h-2.41
		v5.63c0,0.82,0.34,1.32,1.39,1.32c0.34,0,0.63-0.02,0.86-0.06l0.25,1.6C85.13,36.41,84.69,36.47,84.04,36.47z"/>
	<path class="st10" d="M91.71,37.18c-0.86,2.33-1.93,2.94-3.59,2.94c-0.25,0-0.46-0.04-0.65-0.08l-0.25-1.64
		c0.31,0.08,0.69,0.15,1.05,0.15c0.78,0,1.3-0.38,1.6-1.18l0.38-1.03l-3.65-9.91l1.85-0.29l2.73,7.98l2.67-7.83h1.91L91.71,37.18z"
		/>
	<path class="st10" d="M103.65,36.3v-6.82c0-1.03-0.44-1.72-1.53-1.72c-0.99,0-2,0.65-2.9,1.62v6.93h-1.87V26.29h1.49l0.23,1.45
		c0.95-0.86,2.12-1.66,3.55-1.66c1.89,0,2.9,1.13,2.9,2.94v7.29H103.65z"/>
	<path class="st10" d="M111.47,36.47c-1.76,0-2.92-0.63-2.92-2.65v-5.96h-1.51v-1.58h1.51v-3.34l1.83-0.27v3.61h2.16l0.25,1.58
		h-2.41v5.63c0,0.82,0.34,1.32,1.39,1.32c0.34,0,0.63-0.02,0.86-0.06l0.25,1.6C112.56,36.41,112.12,36.47,111.47,36.47z"/>
	<path class="st10" d="M120.85,36.3l-0.21-1.34c-0.8,0.82-1.89,1.55-3.53,1.55c-1.81,0-2.94-1.09-2.94-2.79
		c0-2.5,2.14-3.49,6.32-3.93v-0.42c0-1.26-0.76-1.7-1.91-1.7c-1.22,0-2.37,0.38-3.46,0.86l-0.25-1.62c1.2-0.48,2.33-0.84,3.88-0.84
		c2.44,0,3.61,0.99,3.61,3.21v7.01H120.85z M115.64,24.73v-2.12h2.08v2.12H115.64z M120.49,31.22c-3.7,0.36-4.47,1.36-4.47,2.39
		c0,0.82,0.54,1.34,1.49,1.34c1.09,0,2.14-0.55,2.98-1.41V31.22z M119.4,24.73v-2.12h2.08v2.12H119.4z"/>
	<path class="st10" d="M131.26,36.45l-4.45-5.4v5.25h-1.87V21.44l1.87-0.29v9.34l3.88-4.2h2.25l-4.22,4.43l4.58,5.42L131.26,36.45z"
		/>
	<path class="st10" d="M140.79,36.3l-0.21-1.34c-0.8,0.82-1.89,1.55-3.53,1.55c-1.81,0-2.94-1.09-2.94-2.79
		c0-2.5,2.14-3.49,6.32-3.93v-0.42c0-1.26-0.76-1.7-1.91-1.7c-1.22,0-2.37,0.38-3.46,0.86l-0.25-1.62c1.2-0.48,2.33-0.84,3.88-0.84
		c2.44,0,3.61,0.99,3.61,3.21v7.01H140.79z M140.44,31.22c-3.7,0.36-4.47,1.36-4.47,2.39c0,0.82,0.54,1.34,1.49,1.34
		c1.09,0,2.14-0.55,2.98-1.41V31.22z"/>
	<path class="st10" d="M148.24,36.47c-1.76,0-2.92-0.63-2.92-2.65v-5.96h-1.51v-1.58h1.51v-3.34l1.83-0.27v3.61h2.16l0.25,1.58
		h-2.41v5.63c0,0.82,0.34,1.32,1.39,1.32c0.34,0,0.63-0.02,0.86-0.06l0.25,1.6C149.33,36.41,148.89,36.47,148.24,36.47z"/>
	<path class="st10" d="M157.62,36.3l-0.21-1.34c-0.8,0.82-1.89,1.55-3.53,1.55c-1.8,0-2.94-1.09-2.94-2.79
		c0-2.5,2.14-3.49,6.32-3.93v-0.42c0-1.26-0.76-1.7-1.91-1.7c-1.22,0-2.37,0.38-3.46,0.86l-0.25-1.62c1.2-0.48,2.33-0.84,3.88-0.84
		c2.44,0,3.61,0.99,3.61,3.21v7.01H157.62z M157.26,31.22c-3.7,0.36-4.47,1.36-4.47,2.39c0,0.82,0.55,1.34,1.49,1.34
		c1.09,0,2.14-0.55,2.98-1.41V31.22z"/>
	<path class="st10" d="M161.78,36.3V21.44l1.87-0.29V36.3H161.78z"/>
	<path class="st10" d="M170.41,36.51c-2.67,0-4.6-1.91-4.6-5.21s1.93-5.23,4.6-5.23c2.69,0,4.66,1.93,4.66,5.23
		S173.1,36.51,170.41,36.51z M170.41,27.65c-1.81,0-2.71,1.55-2.71,3.65c0,2.06,0.95,3.65,2.71,3.65c1.85,0,2.77-1.55,2.77-3.65
		C173.18,29.25,172.22,27.65,170.41,27.65z"/>
	<path class="st10" d="M185.61,26.14l0.27,1.68l-1.91,0.19c0.27,0.46,0.4,0.99,0.4,1.55c0,2.14-1.8,3.44-3.84,3.44
		c-0.25,0-0.5-0.02-0.76-0.06c-0.29,0.19-0.5,0.42-0.5,0.61c0,0.36,0.36,0.44,2.12,0.76l0.71,0.12c2.12,0.38,3.44,1.05,3.44,2.6
		c0,2.1-2.29,3.09-4.89,3.09s-4.68-0.82-4.68-2.58c0-1.03,0.71-1.83,2.12-2.58c-0.44-0.31-0.63-0.67-0.63-1.05
		c0-0.48,0.38-0.97,1.05-1.36c-1.11-0.55-1.87-1.62-1.87-2.98c0-2.16,1.81-3.48,3.84-3.48c1.01,0,1.89,0.29,2.58,0.84L185.61,26.14z
		 M177.75,37.39c0,0.8,1.03,1.39,2.98,1.39s3.04-0.67,3.04-1.51c0-0.61-0.46-1.03-1.89-1.28l-1.2-0.21
		c-0.55-0.1-0.84-0.17-1.24-0.25C178.28,36.11,177.75,36.7,177.75,37.39z M180.48,27.44c-1.26,0-2.04,0.97-2.04,2.18
		c0,1.16,0.8,2.06,2.04,2.06c1.28,0,2.08-0.95,2.08-2.14S181.72,27.44,180.48,27.44z"/>
	<path class="st10" d="M188.42,24.27c-0.65,0-1.2-0.52-1.2-1.18c0-0.65,0.55-1.2,1.2-1.2s1.18,0.55,1.18,1.2
		C189.6,23.75,189.07,24.27,188.42,24.27z M187.48,36.3V26.29h1.87V36.3H187.48z"/>
</g>
<g>
	<path class="st10" d="M200.44,25.33c-2.42-0.9-3.67-2.75-3.67-5.57c0-3.43,2-5.75,5.11-5.75c3.12,0,5.07,2.31,5.07,5.71
		c0,2.8-1.36,4.71-3.41,5.38l3.17,1.12l-0.3,1.33L200.44,25.33z M201.86,15.39c-2.19,0-3.54,1.7-3.54,4.35s1.36,4.43,3.54,4.43
		c2.19,0,3.54-1.78,3.54-4.43S204.04,15.39,201.86,15.39z"/>
	<path class="st10" d="M215.88,21.95h-4.5l-1.23,3.31h-1.57l4.32-11.09h1.5l4.26,10.88l-1.49,0.32L215.88,21.95z M211.88,20.62h3.5
		l-1.76-4.69L211.88,20.62z"/>
</g>
</svg>
