<?xml version="1.0" encoding="utf-8"?>
<!-- Generator: Adobe Illustrator 24.0.1, SVG Export Plug-In . SVG Version: 6.00 Build 0)  -->
<svg version="1.1" id="Layer_1" xmlns="http://www.w3.org/2000/svg" xmlns:xlink="http://www.w3.org/1999/xlink" x="0px" y="0px"
	 viewBox="0 0 122 33" style="enable-background:new 0 0 122 33;" xml:space="preserve">
<style type="text/css">
	.st0{clip-path:url(#SVGID_2_);}
	.st1{clip-path:url(#SVGID_4_);fill:#00347A;}
	.st2{clip-path:url(#SVGID_6_);}
	.st3{clip-path:url(#SVGID_8_);fill:#FFFFFF;}
	.st4{clip-path:url(#SVGID_10_);}
	.st5{clip-path:url(#SVGID_12_);fill:#FFFFFF;}
	.st6{clip-path:url(#SVGID_14_);}
	.st7{clip-path:url(#SVGID_16_);fill:#FFFFFF;}
	.st8{clip-path:url(#SVGID_18_);}
	.st9{clip-path:url(#SVGID_20_);fill:#FFFFFF;}
	.st10{fill:#00347A;}
</style>
<g>
	<g>
		<g>
			<defs>
				<path id="SVGID_1_" d="M27.1,26.4H8.5c-0.3,0-0.6-0.3-0.6-0.6V7.2c0-0.3,0.3-0.6,0.6-0.6h18.6c0.3,0,0.6,0.3,0.6,0.6v18.6
					C27.7,26.1,27.4,26.4,27.1,26.4z"/>
			</defs>
			<clipPath id="SVGID_2_">
				<use xlink:href="#SVGID_1_"  style="overflow:visible;"/>
			</clipPath>
			<g class="st0">
				<defs>
					<rect id="SVGID_3_" x="7.9" y="6.6" width="101.6" height="19.8"/>
				</defs>
				<clipPath id="SVGID_4_">
					<use xlink:href="#SVGID_3_"  style="overflow:visible;"/>
				</clipPath>
				<rect x="4.8" y="3.5" class="st1" width="26" height="26"/>
			</g>
		</g>
		<g>
			<defs>
				<path id="SVGID_5_" d="M12.9,14v-1.8c0-0.4,0.3-0.7,0.7-0.7h1.8V14"/>
			</defs>
			<clipPath id="SVGID_6_">
				<use xlink:href="#SVGID_5_"  style="overflow:visible;"/>
			</clipPath>
			<g class="st2">
				<defs>
					<rect id="SVGID_7_" x="7.9" y="6.6" width="101.6" height="19.8"/>
				</defs>
				<clipPath id="SVGID_8_">
					<use xlink:href="#SVGID_7_"  style="overflow:visible;"/>
				</clipPath>
				<rect x="9.8" y="8.4" class="st3" width="8.7" height="8.7"/>
			</g>
		</g>
		<g>
			<defs>
				<path id="SVGID_9_" d="M12.9,16.5h2.5v4.6c0,0.2-0.2,0.3-0.4,0.3h-1.8c-0.2,0-0.4-0.1-0.4-0.3"/>
			</defs>
			<clipPath id="SVGID_10_">
				<use xlink:href="#SVGID_9_"  style="overflow:visible;"/>
			</clipPath>
			<g class="st4">
				<defs>
					<rect id="SVGID_11_" x="7.9" y="6.6" width="101.6" height="19.8"/>
				</defs>
				<clipPath id="SVGID_12_">
					<use xlink:href="#SVGID_11_"  style="overflow:visible;"/>
				</clipPath>
				<rect x="9.8" y="13.4" class="st5" width="8.7" height="11.2"/>
			</g>
		</g>
		<g>
			<defs>
				<path id="SVGID_13_" d="M17.8,11.5h4.6c0.2,0,0.4,0.2,0.4,0.4V14h-5"/>
			</defs>
			<clipPath id="SVGID_14_">
				<use xlink:href="#SVGID_13_"  style="overflow:visible;"/>
			</clipPath>
			<g class="st6">
				<defs>
					<rect id="SVGID_15_" x="7.9" y="6.6" width="101.6" height="19.8"/>
				</defs>
				<clipPath id="SVGID_16_">
					<use xlink:href="#SVGID_15_"  style="overflow:visible;"/>
				</clipPath>
				<rect x="14.7" y="8.4" class="st7" width="11.2" height="8.7"/>
			</g>
		</g>
		<g>
			<defs>
				<path id="SVGID_17_" d="M22.4,19h-4.6v-2.5h5v2.1C22.8,18.8,22.6,19,22.4,19"/>
			</defs>
			<clipPath id="SVGID_18_">
				<use xlink:href="#SVGID_17_"  style="overflow:visible;"/>
			</clipPath>
			<g class="st8">
				<defs>
					<rect id="SVGID_19_" x="7.9" y="6.6" width="101.6" height="19.8"/>
				</defs>
				<clipPath id="SVGID_20_">
					<use xlink:href="#SVGID_19_"  style="overflow:visible;"/>
				</clipPath>
				<rect x="14.7" y="13.4" class="st9" width="11.2" height="8.7"/>
			</g>
		</g>
	</g>
	<g>
		<path class="st10" d="M35.1,21.5v-9h1.2v7.9h3.2l0.2,1.1H35.1z"/>
		<path class="st10" d="M41.5,14.1c-0.4,0-0.7-0.3-0.7-0.7c0-0.4,0.3-0.7,0.7-0.7c0.4,0,0.7,0.3,0.7,0.7
			C42.2,13.8,41.9,14.1,41.5,14.1z M40.9,21.5v-6.2h1.2v6.2H40.9z"/>
		<path class="st10" d="M44.4,14.1c-0.4,0-0.7-0.3-0.7-0.7c0-0.4,0.3-0.7,0.7-0.7s0.7,0.3,0.7,0.7C45.1,13.8,44.8,14.1,44.4,14.1z
			 M43.8,21.5v-6.2h1.2v6.2H43.8z"/>
		<path class="st10" d="M48.7,21.7c-1.1,0-1.8-0.4-1.8-1.6v-3.7h-0.9v-1h0.9v-2.1l1.1-0.2v2.2h1.3l0.2,1H48v3.5
			c0,0.5,0.2,0.8,0.9,0.8c0.2,0,0.4,0,0.5,0l0.2,1C49.4,21.6,49.1,21.7,48.7,21.7z"/>
		<path class="st10" d="M53.4,22.1c-0.5,1.4-1.2,1.8-2.2,1.8c-0.2,0-0.3,0-0.4-0.1l-0.2-1c0.2,0.1,0.4,0.1,0.7,0.1
			c0.5,0,0.8-0.2,1-0.7l0.2-0.6l-2.3-6.1l1.1-0.2l1.7,4.9l1.7-4.9h1.2L53.4,22.1z"/>
		<path class="st10" d="M60.8,21.5v-4.2c0-0.6-0.3-1.1-0.9-1.1c-0.6,0-1.2,0.4-1.8,1v4.3h-1.2v-6.2h0.9l0.1,0.9c0.6-0.5,1.3-1,2.2-1
			c1.2,0,1.8,0.7,1.8,1.8v4.5H60.8z"/>
		<path class="st10" d="M65.7,21.7c-1.1,0-1.8-0.4-1.8-1.6v-3.7h-0.9v-1h0.9v-2.1l1.1-0.2v2.2h1.3l0.2,1H65v3.5
			c0,0.5,0.2,0.8,0.9,0.8c0.2,0,0.4,0,0.5,0l0.2,1C66.4,21.6,66.1,21.7,65.7,21.7z"/>
		<path class="st10" d="M71.5,21.5l-0.1-0.8c-0.5,0.5-1.2,1-2.2,1c-1.1,0-1.8-0.7-1.8-1.7c0-1.5,1.3-2.2,3.9-2.4v-0.3
			c0-0.8-0.5-1.1-1.2-1.1c-0.8,0-1.5,0.2-2.1,0.5l-0.2-1c0.7-0.3,1.4-0.5,2.4-0.5c1.5,0,2.2,0.6,2.2,2v4.3H71.5z M68.3,14.4v-1.3
			h1.3v1.3H68.3z M71.3,18.4c-2.3,0.2-2.8,0.8-2.8,1.5c0,0.5,0.3,0.8,0.9,0.8c0.7,0,1.3-0.3,1.8-0.9V18.4z M70.6,14.4v-1.3h1.3v1.3
			H70.6z"/>
		<path class="st10" d="M78,21.6l-2.8-3.3v3.3H74v-9.2l1.2-0.2v5.8l2.4-2.6H79l-2.6,2.7l2.8,3.4L78,21.6z"/>
		<path class="st10" d="M83.9,21.5l-0.1-0.8c-0.5,0.5-1.2,1-2.2,1c-1.1,0-1.8-0.7-1.8-1.7c0-1.5,1.3-2.2,3.9-2.4v-0.3
			c0-0.8-0.5-1.1-1.2-1.1c-0.8,0-1.5,0.2-2.1,0.5l-0.2-1c0.7-0.3,1.4-0.5,2.4-0.5c1.5,0,2.2,0.6,2.2,2v4.3H83.9z M83.6,18.4
			c-2.3,0.2-2.8,0.8-2.8,1.5c0,0.5,0.3,0.8,0.9,0.8c0.7,0,1.3-0.3,1.8-0.9V18.4z"/>
		<path class="st10" d="M88.5,21.7c-1.1,0-1.8-0.4-1.8-1.6v-3.7h-0.9v-1h0.9v-2.1l1.1-0.2v2.2h1.3l0.2,1h-1.5v3.5
			c0,0.5,0.2,0.8,0.9,0.8c0.2,0,0.4,0,0.5,0l0.2,1C89.2,21.6,88.9,21.7,88.5,21.7z"/>
		<path class="st10" d="M94.3,21.5l-0.1-0.8c-0.5,0.5-1.2,1-2.2,1c-1.1,0-1.8-0.7-1.8-1.7c0-1.5,1.3-2.2,3.9-2.4v-0.3
			c0-0.8-0.5-1.1-1.2-1.1c-0.8,0-1.5,0.2-2.1,0.5l-0.2-1c0.7-0.3,1.4-0.5,2.4-0.5c1.5,0,2.2,0.6,2.2,2v4.3H94.3z M94.1,18.4
			c-2.3,0.2-2.8,0.8-2.8,1.5c0,0.5,0.3,0.8,0.9,0.8c0.7,0,1.3-0.3,1.8-0.9V18.4z"/>
		<path class="st10" d="M96.9,21.5v-9.2l1.2-0.2v9.4H96.9z"/>
		<path class="st10" d="M102.2,21.7c-1.7,0-2.8-1.2-2.8-3.2s1.2-3.2,2.8-3.2c1.7,0,2.9,1.2,2.9,3.2S103.9,21.7,102.2,21.7z
			 M102.2,16.2c-1.1,0-1.7,1-1.7,2.3c0,1.3,0.6,2.3,1.7,2.3c1.1,0,1.7-1,1.7-2.3C103.9,17.2,103.3,16.2,102.2,16.2z"/>
		<path class="st10" d="M111.6,15.3l0.2,1l-1.2,0.1c0.2,0.3,0.2,0.6,0.2,1c0,1.3-1.1,2.1-2.4,2.1c-0.2,0-0.3,0-0.5,0
			c-0.2,0.1-0.3,0.3-0.3,0.4c0,0.2,0.2,0.3,1.3,0.5l0.4,0.1c1.3,0.2,2.1,0.7,2.1,1.6c0,1.3-1.4,1.9-3,1.9c-1.6,0-2.9-0.5-2.9-1.6
			c0-0.6,0.4-1.1,1.3-1.6c-0.3-0.2-0.4-0.4-0.4-0.7c0-0.3,0.2-0.6,0.7-0.8c-0.7-0.3-1.2-1-1.2-1.8c0-1.3,1.1-2.2,2.4-2.2
			c0.6,0,1.2,0.2,1.6,0.5L111.6,15.3z M106.8,22.2c0,0.5,0.6,0.9,1.8,0.9s1.9-0.4,1.9-0.9c0-0.4-0.3-0.6-1.2-0.8l-0.7-0.1
			c-0.3-0.1-0.5-0.1-0.8-0.2C107.1,21.4,106.8,21.8,106.8,22.2z M108.5,16.1c-0.8,0-1.3,0.6-1.3,1.4c0,0.7,0.5,1.3,1.3,1.3
			c0.8,0,1.3-0.6,1.3-1.3S109.2,16.1,108.5,16.1z"/>
		<path class="st10" d="M113.4,14.1c-0.4,0-0.7-0.3-0.7-0.7c0-0.4,0.3-0.7,0.7-0.7c0.4,0,0.7,0.3,0.7,0.7
			C114.1,13.8,113.8,14.1,113.4,14.1z M112.8,21.5v-6.2h1.2v6.2H112.8z"/>
	</g>
</g>
</svg>
