<?xml version="1.0" encoding="UTF-8"?>
<svg width="25px" height="20px" viewBox="0 0 25 20" version="1.1" xmlns="http://www.w3.org/2000/svg" xmlns:xlink="http://www.w3.org/1999/xlink">
    <!-- Generator: Sketch 61 (89581) - https://sketch.com -->
    <title>Fill 1</title>
    <desc>Created with Sketch.</desc>
    <g id="Etusivu" stroke="none" stroke-width="1" fill="none" fill-rule="evenodd">
        <g id="UUSI-Etusivu---XL-Copy" transform="translate(-933.000000, -2496.000000)" fill="#FFFFFF">
            <path d="M955.456042,2501.63452 C955.456042,2501.41592 955.451492,2501.19844 955.441256,2500.98209 C956.442689,2500.2692 957.313327,2499.37998 958,2498.36761 C957.081025,2498.76954 956.091818,2499.04047 955.054274,2499.16251 C956.113428,2498.53751 956.92663,2497.54837 957.309915,2496.36946 C956.318718,2496.948 955.221464,2497.36839 954.053125,2497.59511 C953.11709,2496.6138 951.78412,2496 950.309267,2496 C947.476138,2496 945.179268,2498.26097 945.179268,2501.04842 C945.179268,2501.44475 945.224478,2501.82988 945.312054,2502.19962 C941.049566,2501.98858 937.269596,2499.97923 934.739855,2496.92448 C934.299133,2497.6704 934.045221,2498.53751 934.045221,2499.46227 C934.045221,2501.21384 934.950833,2502.76024 936.327874,2503.66514 C935.486522,2503.63939 934.696067,2503.41183 934.004845,2503.03314 C934.003708,2503.05441 934.003708,2503.07568 934.003708,2503.09779 C934.003708,2505.54322 935.771996,2507.58475 938.118625,2508.04741 C937.687855,2508.16301 937.234623,2508.22515 936.766605,2508.22515 C936.435922,2508.22515 936.114622,2508.19296 935.802136,2508.13418 C936.455257,2510.13989 938.348653,2511.59981 940.594059,2511.64095 C938.837996,2512.99535 936.626712,2513.80228 934.2235,2513.80228 C933.80979,2513.80228 933.401483,2513.77905 933,2513.73231 C935.270142,2515.16424 937.965368,2516 940.862472,2516 C950.296756,2516 955.456042,2508.30603 955.456042,2501.63452 Z" id="Fill-1"></path>
        </g>
    </g>
</svg>